<svg xmlns="http://www.w3.org/2000/svg" xmlns:xlink="http://www.w3.org/1999/xlink" width="119.148" height="133.299" viewBox="0 0 119.148 133.299">
  <defs>
    <radialGradient id="radial-gradient" cx="0.502" cy="-0.07" r="1.042" gradientTransform="translate(0)" gradientUnits="objectBoundingBox">
      <stop offset="0" stop-color="#b04190"/>
      <stop offset="1" stop-color="#602482"/>
    </radialGradient>
    <radialGradient id="radial-gradient-2" cx="0.502" cy="-0.07" r="1.042" xlink:href="#radial-gradient"/>
    <radialGradient id="radial-gradient-3" cx="0.501" cy="0.015" r="0.886" xlink:href="#radial-gradient"/>
    <radialGradient id="radial-gradient-4" cx="0.502" cy="0.015" r="0.886" xlink:href="#radial-gradient"/>
    <radialGradient id="radial-gradient-5" cx="0.501" cy="0.015" r="0.886" xlink:href="#radial-gradient"/>
    <radialGradient id="radial-gradient-6" cx="0.502" cy="0.015" r="0.886" xlink:href="#radial-gradient"/>
    <radialGradient id="radial-gradient-7" cx="0.502" cy="-0.07" r="1.041" xlink:href="#radial-gradient"/>
    <radialGradient id="radial-gradient-8" cx="0.502" cy="-0.07" r="1.041" xlink:href="#radial-gradient"/>
    <radialGradient id="radial-gradient-9" cx="0.502" cy="0.039" r="0.843" xlink:href="#radial-gradient"/>
    <radialGradient id="radial-gradient-10" cx="0.502" cy="0.039" r="0.843" xlink:href="#radial-gradient"/>
  </defs>
  <g id="Couleur" transform="translate(-791.721 -320)">
    <g id="Symbole">
      <g id="Groupe_13" data-name="Groupe 13">
        <g id="Groupe_3" data-name="Groupe 3">
          <g id="Groupe_1" data-name="Groupe 1">
            <path id="Tracé_1" data-name="Tracé 1" d="M875.081,394.69l-.284-.149a86.54,86.54,0,0,0-56.044-8.877l-.3.053.14-.277a90.649,90.649,0,0,0,8.877-56.048l-.045-.29.265.124a100.248,100.248,0,0,0,56.058,8.879l.3-.038-.146.267a82.834,82.834,0,0,0-8.876,56.04Zm-40.92-10.669a86.711,86.711,0,0,1,40.5,10.1,83.09,83.09,0,0,1,8.822-55.665,100.543,100.543,0,0,1-55.663-8.819,90.93,90.93,0,0,1-8.813,55.673A91.446,91.446,0,0,1,834.161,384.021Z" fill="url(#radial-gradient)"/>
          </g>
          <g id="Groupe_2" data-name="Groupe 2">
            <path id="Tracé_2" data-name="Tracé 2" d="M875.069,394.669l-.266-.125a100.265,100.265,0,0,0-56.057-8.879l-.3.039.145-.267a82.839,82.839,0,0,0,8.876-56.041l-.059-.316.284.149a86.553,86.553,0,0,0,56.045,8.877l.3-.052-.14.276a90.641,90.641,0,0,0-8.877,56.049Zm-43.235-10.146a100.359,100.359,0,0,1,42.837,9.615,90.924,90.924,0,0,1,8.813-55.674,86.805,86.805,0,0,1-55.654-8.811,83.1,83.1,0,0,1-8.822,55.666A104.73,104.73,0,0,1,831.834,384.523Z" fill="url(#radial-gradient-2)"/>
          </g>
        </g>
        <g id="Groupe_6" data-name="Groupe 6">
          <g id="Groupe_4" data-name="Groupe 4">
            <path id="Tracé_3" data-name="Tracé 3" d="M838.719,400.442l-.049-.3a90.654,90.654,0,0,0-25.763-50.563l-.207-.208.288-.054a100.255,100.255,0,0,0,50.57-25.767l.222-.208.039.3a82.827,82.827,0,0,0,25.76,50.554l.233.221-.318.046a86.557,86.557,0,0,0-50.559,25.762Zm-25.385-50.88a90.921,90.921,0,0,1,25.594,50.221A86.818,86.818,0,0,1,889.133,374.2a83.09,83.09,0,0,1-25.582-50.219A100.532,100.532,0,0,1,813.334,349.562Z" fill="url(#radial-gradient-3)"/>
          </g>
          <g id="Groupe_5" data-name="Groupe 5">
            <path id="Tracé_4" data-name="Tracé 4" d="M838.709,400.433l-.04-.3a82.83,82.83,0,0,0-25.759-50.555l-.233-.22.318-.047a86.55,86.55,0,0,0,50.559-25.761l.216-.221.049.3A90.643,90.643,0,0,0,889.582,374.2l.207.208-.288.055a100.272,100.272,0,0,0-50.571,25.768Zm-25.353-50.861a83.09,83.09,0,0,1,25.582,50.219,100.536,100.536,0,0,1,50.217-25.583,90.926,90.926,0,0,1-25.6-50.221A86.814,86.814,0,0,1,813.356,349.572Z" fill="url(#radial-gradient-4)"/>
          </g>
        </g>
        <g id="Groupe_9" data-name="Groupe 9">
          <g id="Groupe_7" data-name="Groupe 7">
            <path id="Tracé_5" data-name="Tracé 5" d="M863.774,400.441l-.219-.219a90.655,90.655,0,0,0-50.562-25.763l-.29-.046.2-.214a100.256,100.256,0,0,0,25.767-50.57l.057-.3.209.221a82.83,82.83,0,0,0,50.555,25.759l.318.042-.23.224a86.552,86.552,0,0,0-25.761,50.559ZM813.331,374.2a90.928,90.928,0,0,1,50.225,25.586,86.822,86.822,0,0,1,25.578-50.207,83.1,83.1,0,0,1-50.214-25.592A100.525,100.525,0,0,1,813.331,374.2Z" fill="url(#radial-gradient-5)"/>
          </g>
          <g id="Groupe_8" data-name="Groupe 8">
            <path id="Tracé_6" data-name="Tracé 6" d="M863.761,400.44l-.209-.221A82.835,82.835,0,0,0,813,374.46l-.318-.042.23-.224a86.552,86.552,0,0,0,25.761-50.558l.044-.306.22.218A90.647,90.647,0,0,0,889.5,349.31l.29.047-.2.214a100.259,100.259,0,0,0-25.767,50.57Zm-50.406-26.247a83.1,83.1,0,0,1,50.214,25.592,100.532,100.532,0,0,1,25.589-50.214,90.92,90.92,0,0,1-50.225-25.585A86.816,86.816,0,0,1,813.355,374.193Z" fill="url(#radial-gradient-6)"/>
          </g>
        </g>
        <g id="Groupe_12" data-name="Groupe 12">
          <g id="Groupe_10" data-name="Groupe 10">
            <path id="Tracé_7" data-name="Tracé 7" d="M827.428,394.674l.036-.291a100.255,100.255,0,0,0-8.878-56.057l-.129-.275.3.055a82.838,82.838,0,0,0,56.041-8.875l.281-.154-.054.317a86.556,86.556,0,0,0,8.877,56.045l.144.273-.306-.047a90.636,90.636,0,0,0-56.049,8.877ZM819,338.467a100.537,100.537,0,0,1,8.814,55.665,90.925,90.925,0,0,1,55.671-8.822,86.82,86.82,0,0,1-8.818-55.654A83.089,83.089,0,0,1,819,338.467Z" fill="url(#radial-gradient-7)"/>
          </g>
          <g id="Groupe_11" data-name="Groupe 11">
            <path id="Tracé_8" data-name="Tracé 8" d="M827.411,394.693l.054-.316a86.549,86.549,0,0,0-8.876-56.045l-.144-.274.306.048a90.638,90.638,0,0,0,56.048-8.877l.262-.133-.037.291a100.261,100.261,0,0,0,8.879,56.058l.129.275-.3-.056a82.819,82.819,0,0,0-56.041,8.876Zm-8.4-56.233a86.821,86.821,0,0,1,8.818,55.654,83.094,83.094,0,0,1,55.667-8.811,100.529,100.529,0,0,1-8.814-55.665A90.914,90.914,0,0,1,819.008,338.46Z" fill="url(#radial-gradient-8)"/>
          </g>
        </g>
      </g>
      <g id="Groupe_20" data-name="Groupe 20">
        <g id="Groupe_16" data-name="Groupe 16">
          <g id="Groupe_14" data-name="Groupe 14">
            <path id="Tracé_9" data-name="Tracé 9" d="M851.247,402.436l-.142-.288a86.551,86.551,0,0,0-40.124-40.123l-.277-.137.275-.142a90.65,90.65,0,0,0,40.127-40.126l.133-.261.142.257a100.261,100.261,0,0,0,40.133,40.133l.266.146-.274.131a82.831,82.831,0,0,0-40.121,40.12ZM811.4,361.883a86.819,86.819,0,0,1,39.846,39.841A83.1,83.1,0,0,1,891.1,361.875a100.522,100.522,0,0,1-39.85-39.853A90.93,90.93,0,0,1,811.4,361.883Z" fill="url(#radial-gradient-9)"/>
          </g>
          <g id="Groupe_15" data-name="Groupe 15">
            <path id="Tracé_10" data-name="Tracé 10" d="M851.249,402.412l-.141-.258a100.261,100.261,0,0,0-40.133-40.133l-.266-.146.274-.13A82.837,82.837,0,0,0,851.1,321.624l.138-.29.142.288a86.547,86.547,0,0,0,40.124,40.123l.278.138-.276.141a90.646,90.646,0,0,0-40.127,40.127ZM811.39,361.895a100.514,100.514,0,0,1,39.849,39.853,90.919,90.919,0,0,1,39.854-39.86,86.828,86.828,0,0,1-39.846-39.841A83.093,83.093,0,0,1,811.39,361.895Z" fill="url(#radial-gradient-10)"/>
          </g>
        </g>
        <g id="Groupe_19" data-name="Groupe 19">
          <g id="Groupe_17" data-name="Groupe 17">
            <circle id="Ellipse_1" data-name="Ellipse 1" cx="1.391" cy="1.391" r="1.391" transform="translate(890.394 360.491)" fill="#602482"/>
            <circle id="Ellipse_2" data-name="Ellipse 2" cx="1.391" cy="1.391" r="1.391" transform="translate(809.413 360.491)" fill="#602482"/>
          </g>
          <g id="Groupe_18" data-name="Groupe 18">
            <circle id="Ellipse_3" data-name="Ellipse 3" cx="1.391" cy="1.391" r="1.391" transform="translate(849.904 320.001)" fill="#b04190"/>
            <circle id="Ellipse_4" data-name="Ellipse 4" cx="1.391" cy="1.391" r="1.391" transform="translate(849.904 400.982)" fill="#b04190"/>
          </g>
        </g>
      </g>
    </g>
    <g id="Texte">
      <g id="Groupe_22" data-name="Groupe 22">
        <path id="Tracé_11" data-name="Tracé 11" d="M791.721,410.7h11.208v1.378h-4.875v17.168H796.6V412.083h-4.875Z" fill="#602482"/>
        <path id="Tracé_12" data-name="Tracé 12" d="M806.983,410.7v18.546h-1.457V410.7Zm-.689,0h9.194v1.378h-9.194Zm0,7.684h8.664v1.377h-8.664Zm0,9.485h9.194v1.377h-9.194Z" fill="#602482"/>
        <path id="Tracé_13" data-name="Tracé 13" d="M821.131,410.7v18.546h-1.457V410.7Zm-.689,0h3.471a7.768,7.768,0,0,1,3.219.636,5.271,5.271,0,0,1,2.239,1.828,5.016,5.016,0,0,1,.821,2.914,4.952,4.952,0,0,1-3.06,4.756,7.93,7.93,0,0,1-3.219.623h-3.471v-1.3h3.471a6.4,6.4,0,0,0,2.5-.464,3.744,3.744,0,0,0,1.708-1.378,3.938,3.938,0,0,0,.61-2.239,3.824,3.824,0,0,0-.623-2.226,3.953,3.953,0,0,0-1.709-1.377,6.137,6.137,0,0,0-2.49-.477h-3.471Zm4,9.7,6.333,8.849h-1.8l-6.147-8.849Z" fill="#602482"/>
        <path id="Tracé_14" data-name="Tracé 14" d="M834.987,410.7v18.546H833.53V410.7Zm-.689,0h3.471a7.765,7.765,0,0,1,3.219.636,5.28,5.28,0,0,1,2.24,1.828,5.024,5.024,0,0,1,.821,2.914,4.951,4.951,0,0,1-3.061,4.756,7.927,7.927,0,0,1-3.219.623H834.3v-1.3h3.471a6.393,6.393,0,0,0,2.5-.464,3.747,3.747,0,0,0,1.709-1.378,3.945,3.945,0,0,0,.609-2.239,3.824,3.824,0,0,0-.622-2.226,3.959,3.959,0,0,0-1.709-1.377,6.139,6.139,0,0,0-2.491-.477H834.3Zm4,9.7,6.333,8.849h-1.8l-6.147-8.849Z" fill="#602482"/>
        <path id="Tracé_15" data-name="Tracé 15" d="M848.845,410.7v18.546h-1.457V410.7Zm-.689,0h9.194v1.378h-9.194Zm0,7.684h8.664v1.377h-8.664Zm0,9.485h9.194v1.377h-9.194Z" fill="#602482"/>
        <path id="Tracé_16" data-name="Tracé 16" d="M862.768,426.019a5.069,5.069,0,0,0,1.6,1.524,4.366,4.366,0,0,0,2.279.569,3.875,3.875,0,0,0,2.822-.993,3.382,3.382,0,0,0,1.02-2.531,3.565,3.565,0,0,0-.609-2.173,4.7,4.7,0,0,0-1.577-1.338,16.818,16.818,0,0,0-2.026-.913q-.795-.293-1.656-.7a8.177,8.177,0,0,1-1.6-1.007,4.758,4.758,0,0,1-1.2-1.445,4.193,4.193,0,0,1-.464-2.039,4.24,4.24,0,0,1,2.411-3.935,5.666,5.666,0,0,1,2.57-.57,5.476,5.476,0,0,1,2.557.557,5.782,5.782,0,0,1,1.789,1.4,6.665,6.665,0,0,1,1.086,1.749l-1.272.715a5.784,5.784,0,0,0-.835-1.4,4.572,4.572,0,0,0-1.364-1.153,4.1,4.1,0,0,0-2.04-.464,3.468,3.468,0,0,0-2.491.835,2.757,2.757,0,0,0-.874,2.08,3.08,3.08,0,0,0,.5,1.775,4.625,4.625,0,0,0,1.51,1.338,14.471,14.471,0,0,0,2.491,1.126,15.912,15.912,0,0,1,1.59.715,6.649,6.649,0,0,1,1.5,1.06,5.062,5.062,0,0,1,1.1,1.524,4.841,4.841,0,0,1,.424,2.106,5.03,5.03,0,0,1-.411,2.067,4.833,4.833,0,0,1-1.139,1.6,5.008,5.008,0,0,1-1.708,1.033,6.155,6.155,0,0,1-2.12.358,5.838,5.838,0,0,1-2.835-.663,6.143,6.143,0,0,1-2.04-1.775,8.988,8.988,0,0,1-1.272-2.411l1.192-.742A10.444,10.444,0,0,0,862.768,426.019Z" fill="#602482"/>
        <path id="Tracé_17" data-name="Tracé 17" d="M884.824,410.7v18.546h-1.457V410.7Zm-.662,18.546v-1.457H888.4a8.516,8.516,0,0,0,3.139-.556,6.761,6.761,0,0,0,3.975-4.04,9.816,9.816,0,0,0,0-6.439,6.759,6.759,0,0,0-3.975-4.041,8.516,8.516,0,0,0-3.139-.556h-4.239V410.7H888.4a9.47,9.47,0,0,1,4.756,1.165,8.277,8.277,0,0,1,3.206,3.246,10.836,10.836,0,0,1,0,9.724,8.255,8.255,0,0,1-3.206,3.245,9.46,9.46,0,0,1-4.756,1.166Z" fill="#602482"/>
        <path id="Tracé_18" data-name="Tracé 18" d="M902.364,410.7v18.546h-1.457V410.7Zm-.689,0h9.194v1.378h-9.194Zm0,7.684h8.664v1.377h-8.664Zm0,9.485h9.194v1.377h-9.194Z" fill="#602482"/>
      </g>
      <g id="Groupe_23" data-name="Groupe 23">
        <path id="Tracé_19" data-name="Tracé 19" d="M794.609,449.828a5.061,5.061,0,0,0,1.6,1.524,4.361,4.361,0,0,0,2.279.57,3.871,3.871,0,0,0,2.822-.994,3.379,3.379,0,0,0,1.02-2.53,3.564,3.564,0,0,0-.61-2.173,4.681,4.681,0,0,0-1.576-1.338,16.992,16.992,0,0,0-2.027-.914q-.795-.291-1.656-.7a8.165,8.165,0,0,1-1.6-1.006,4.745,4.745,0,0,1-1.205-1.445,4.184,4.184,0,0,1-.465-2.04,4.24,4.24,0,0,1,2.412-3.934,5.662,5.662,0,0,1,2.57-.57,5.479,5.479,0,0,1,2.557.557,5.789,5.789,0,0,1,1.788,1.4,6.654,6.654,0,0,1,1.087,1.749l-1.272.715a5.872,5.872,0,0,0-.835-1.4,4.583,4.583,0,0,0-1.364-1.152,4.1,4.1,0,0,0-2.041-.464,3.462,3.462,0,0,0-2.49.835,2.755,2.755,0,0,0-.875,2.079,3.086,3.086,0,0,0,.5,1.776,4.605,4.605,0,0,0,1.51,1.338,14.479,14.479,0,0,0,2.491,1.126,15.355,15.355,0,0,1,1.589.715,6.591,6.591,0,0,1,1.5,1.06,5.077,5.077,0,0,1,1.1,1.524,4.852,4.852,0,0,1,.424,2.106,5.041,5.041,0,0,1-.411,2.066,4.826,4.826,0,0,1-1.139,1.6,5.015,5.015,0,0,1-1.709,1.034,6.149,6.149,0,0,1-2.119.357,5.844,5.844,0,0,1-2.836-.662,6.139,6.139,0,0,1-2.039-1.775,8.959,8.959,0,0,1-1.272-2.411l1.192-.742A10.359,10.359,0,0,0,794.609,449.828Z" fill="#602482"/>
        <path id="Tracé_20" data-name="Tracé 20" d="M809.857,445.934l-.159.318-2.782,6.809h-1.643L813.46,433.8l8.187,19.262h-1.642l-2.756-6.7-.133-.345-3.656-8.849Zm-.636-.477h8.558l.477,1.378h-9.512Z" fill="#602482"/>
        <path id="Tracé_21" data-name="Tracé 21" d="M831.98,443.814h8.24a11.038,11.038,0,0,1-.583,3.591,9.131,9.131,0,0,1-1.722,3.033,8.284,8.284,0,0,1-2.756,2.093,8.4,8.4,0,0,1-3.656.768,9.455,9.455,0,0,1-3.67-.7,8.923,8.923,0,0,1-2.941-1.975,8.833,8.833,0,0,1-1.947-3.02,10.906,10.906,0,0,1,0-7.63,8.837,8.837,0,0,1,1.947-3.021,8.936,8.936,0,0,1,2.941-1.974,9.456,9.456,0,0,1,3.67-.7,9.8,9.8,0,0,1,3.14.477,8.235,8.235,0,0,1,2.53,1.365,8.66,8.66,0,0,1,1.908,2.133l-1.06.927a7.047,7.047,0,0,0-2.6-2.491,7.768,7.768,0,0,0-3.921-.954,7.526,7.526,0,0,0-6.69,3.868,9.075,9.075,0,0,0,0,8.36,7.456,7.456,0,0,0,6.69,3.881,7.093,7.093,0,0,0,2.808-.53,6.65,6.65,0,0,0,2.16-1.457,7.534,7.534,0,0,0,1.47-2.119,7.777,7.777,0,0,0,.69-2.544H831.98Z" fill="#602482"/>
        <path id="Tracé_22" data-name="Tracé 22" d="M845.2,434.515v18.546h-1.457V434.515Zm-.689,0h9.194v1.377h-9.194Zm0,7.683h8.664v1.378h-8.664Zm0,9.486h9.194v1.377h-9.194Z" fill="#602482"/>
        <path id="Tracé_23" data-name="Tracé 23" d="M859.124,449.828a5.04,5.04,0,0,0,1.6,1.524,4.36,4.36,0,0,0,2.278.57,3.87,3.87,0,0,0,2.822-.994,3.379,3.379,0,0,0,1.021-2.53,3.564,3.564,0,0,0-.61-2.173,4.685,4.685,0,0,0-1.577-1.338,16.982,16.982,0,0,0-2.026-.914q-.8-.291-1.656-.7a8.2,8.2,0,0,1-1.6-1.006,4.773,4.773,0,0,1-1.205-1.445,4.2,4.2,0,0,1-.464-2.04,4.237,4.237,0,0,1,2.411-3.934,5.67,5.67,0,0,1,2.571-.57,5.479,5.479,0,0,1,2.557.557,5.789,5.789,0,0,1,1.788,1.4,6.651,6.651,0,0,1,1.086,1.749l-1.271.715a5.872,5.872,0,0,0-.835-1.4,4.6,4.6,0,0,0-1.365-1.152,4.1,4.1,0,0,0-2.04-.464,3.467,3.467,0,0,0-2.491.835,2.755,2.755,0,0,0-.874,2.079,3.078,3.078,0,0,0,.5,1.776,4.6,4.6,0,0,0,1.51,1.338,14.5,14.5,0,0,0,2.49,1.126,15.366,15.366,0,0,1,1.59.715,6.586,6.586,0,0,1,1.5,1.06,5.06,5.06,0,0,1,1.1,1.524,4.837,4.837,0,0,1,.424,2.106,5.04,5.04,0,0,1-.41,2.066,4.815,4.815,0,0,1-1.14,1.6,5.01,5.01,0,0,1-1.708,1.034,6.155,6.155,0,0,1-2.12.357,5.838,5.838,0,0,1-2.835-.662,6.153,6.153,0,0,1-2.04-1.775,9.018,9.018,0,0,1-1.272-2.411l1.193-.742A10.356,10.356,0,0,0,859.124,449.828Z" fill="#602482"/>
        <path id="Tracé_24" data-name="Tracé 24" d="M873.007,449.828a5.05,5.05,0,0,0,1.6,1.524,4.361,4.361,0,0,0,2.279.57,3.871,3.871,0,0,0,2.822-.994,3.379,3.379,0,0,0,1.02-2.53,3.564,3.564,0,0,0-.61-2.173,4.681,4.681,0,0,0-1.576-1.338,16.992,16.992,0,0,0-2.027-.914q-.8-.291-1.656-.7a8.167,8.167,0,0,1-1.6-1.006,4.744,4.744,0,0,1-1.2-1.445,4.184,4.184,0,0,1-.465-2.04A4.24,4.24,0,0,1,874,434.846a5.663,5.663,0,0,1,2.57-.57,5.479,5.479,0,0,1,2.557.557,5.789,5.789,0,0,1,1.788,1.4A6.654,6.654,0,0,1,882,437.986l-1.272.715a5.872,5.872,0,0,0-.835-1.4,4.584,4.584,0,0,0-1.364-1.152,4.1,4.1,0,0,0-2.041-.464,3.463,3.463,0,0,0-2.49.835,2.756,2.756,0,0,0-.875,2.079,3.086,3.086,0,0,0,.5,1.776,4.605,4.605,0,0,0,1.51,1.338,14.477,14.477,0,0,0,2.491,1.126,15.354,15.354,0,0,1,1.589.715,6.561,6.561,0,0,1,1.5,1.06,5.062,5.062,0,0,1,1.1,1.524,4.852,4.852,0,0,1,.424,2.106,5.041,5.041,0,0,1-.411,2.066,4.825,4.825,0,0,1-1.139,1.6,5.014,5.014,0,0,1-1.709,1.034,6.153,6.153,0,0,1-2.119.357,5.844,5.844,0,0,1-2.836-.662,6.14,6.14,0,0,1-2.039-1.775,8.96,8.96,0,0,1-1.272-2.411l1.192-.742A10.356,10.356,0,0,0,873.007,449.828Z" fill="#602482"/>
        <path id="Tracé_25" data-name="Tracé 25" d="M887.116,434.515v18.546h-1.457V434.515Zm-.689,0h9.194v1.377h-9.194Zm0,7.683h8.664v1.378h-8.664Zm0,9.486h9.194v1.377h-9.194Z" fill="#602482"/>
        <path id="Tracé_26" data-name="Tracé 26" d="M901.039,449.828a5.039,5.039,0,0,0,1.6,1.524,4.36,4.36,0,0,0,2.278.57,3.869,3.869,0,0,0,2.822-.994,3.379,3.379,0,0,0,1.021-2.53,3.564,3.564,0,0,0-.61-2.173,4.676,4.676,0,0,0-1.577-1.338,16.977,16.977,0,0,0-2.026-.914q-.795-.291-1.656-.7a8.2,8.2,0,0,1-1.6-1.006,4.773,4.773,0,0,1-1.2-1.445,4.194,4.194,0,0,1-.464-2.04,4.237,4.237,0,0,1,2.411-3.934,5.67,5.67,0,0,1,2.571-.57,5.479,5.479,0,0,1,2.557.557,5.789,5.789,0,0,1,1.788,1.4,6.649,6.649,0,0,1,1.086,1.749l-1.271.715a5.872,5.872,0,0,0-.835-1.4,4.6,4.6,0,0,0-1.365-1.152,4.1,4.1,0,0,0-2.04-.464,3.467,3.467,0,0,0-2.491.835,2.758,2.758,0,0,0-.874,2.079,3.086,3.086,0,0,0,.5,1.776,4.605,4.605,0,0,0,1.51,1.338,14.5,14.5,0,0,0,2.49,1.126,15.373,15.373,0,0,1,1.59.715,6.586,6.586,0,0,1,1.5,1.06,5.062,5.062,0,0,1,1.1,1.524,4.838,4.838,0,0,1,.424,2.106,5.04,5.04,0,0,1-.41,2.066,4.814,4.814,0,0,1-1.14,1.6,5.01,5.01,0,0,1-1.708,1.034,6.154,6.154,0,0,1-2.12.357,5.837,5.837,0,0,1-2.835-.662,6.153,6.153,0,0,1-2.04-1.775,9.016,9.016,0,0,1-1.272-2.411l1.193-.742A10.359,10.359,0,0,0,901.039,449.828Z" fill="#602482"/>
      </g>
    </g>
  </g>
</svg>
